<svg xmlns="http://www.w3.org/2000/svg"
     viewBox="0 0 96 96"
     width="46"
     height="46"
     aria-label="Logo icon">

  <defs>
    <linearGradient id="g1" x1="10" y1="6" x2="86" y2="90" gradientUnits="userSpaceOnUse">
      <stop offset="0" stop-color="#6D5EF7"/>
      <stop offset="0.52" stop-color="#2DD4BF"/>
      <stop offset="1" stop-color="#22C55E"/>
    </linearGradient>

    <radialGradient id="g2" cx="30%" cy="24%" r="70%">
      <stop offset="0" stop-color="#FFFFFF" stop-opacity="0.45"/>
      <stop offset="1" stop-color="#FFFFFF" stop-opacity="0"/>
    </radialGradient>

    <clipPath id="clip">
      <rect x="10" y="10" width="76" height="76" rx="18"/>
    </clipPath>
  </defs>

  <!-- base -->
  <rect x="10" y="10" width="76" height="76" rx="18" fill="url(#g1)"/>

  <g clip-path="url(#clip)">
    <!-- highlight -->
    <path d="M-6 18 C 22 2, 52 2, 102 22 L 102 -6 L -6 -6 Z"
          fill="url(#g2)"/>

    <!-- Sigil of Lucifer (header-optimized) -->
    <g fill="none"
       stroke="#FFFFFF"
       stroke-width="2.6"
       stroke-linecap="round"
       stroke-linejoin="round"
       opacity="0.95">

      <path d="M48 24 L48 58"/>

      <path d="M48 34 L36 28"/>
      <path d="M48 34 L60 28"/>

      <path d="M48 44 L36 50"/>
      <path d="M48 44 L60 50"/>

      <path d="M40 50 L48 58 L56 50"/>

      <circle cx="48" cy="66" r="6.4"/>
    </g>
  </g>
</svg>
